<?xml version="1.0" encoding="utf-8"?>
<!-- Generator: Adobe Illustrator 21.0.0, SVG Export Plug-In . SVG Version: 6.00 Build 0)  -->
<svg version="1.1" xmlns="http://www.w3.org/2000/svg" xmlns:xlink="http://www.w3.org/1999/xlink" x="0px" y="0px"
	 viewBox="0 0 2782.1 850.4" style="enable-background:new 0 0 2782.1 850.4;" xml:space="preserve">
<style type="text/css">
	.st0{font-family:'STKaiti';}
	.st1{font-size:200px;}
	.st2{fill:#AB1D23;}
	.st3{fill:#EBC100;}
</style>
<g id="图层_2">
	<text transform="matrix(1 0 0 1 912.9576 353.6952)"><tspan x="0" y="0" class="st0 st1">五邑大学化州同乡会</tspan><tspan x="312.4" y="240" class="st0 st1">2018毕业相簿</tspan></text>
</g>
<g id="图层_1">
	<title>五邑大学化州同乡会</title>
	<circle class="st2" cx="425.2" cy="425.2" r="425.2"/>
	<path class="st3" d="M462.4,745.8c0,10.2-2,19.8,2.3,27.5c1.3,2.4,4.1,6.8,6.6,7.6c2.7-1.5,3.4-11.5,3.5-14.6
		c0.2-5.4-4-39.3-4.5-51.6c-0.6-16.6-0.8-41.7,6.2-57.5c2.5-5.6,6.7-10.9-4.1-17.9c-7-4.6-12.6-3.3-9.9,2.5c2.5,5.4,3.6,4.6,2,15
		C459.4,687.8,462.4,714,462.4,745.8z"/>
	<path class="st3" d="M397.6,676.1c0,6.4-2.1,11.6-2.7,17.7c-1.4,13.3,1.7,21-2.4,32.6c-1.2,3.4-2.5,8.2-5.8,8.6
		c-2.9-4-0.6-6.9-1.3-11.5c-4.1,1.9-5.9,25.5,5.1,25.6c7.7,0.1,12.2-16.5,12.4-25.2c0.1-4.8-0.9-20.4,1.9-23.5
		c2.1-0.3,5,0.4,6.2,1.5c0.2,0.2,2.4,4.3,3.1,5.3c3.7,5.4,12.7,10.3,12,1.8c-1.3-15.8-1.8-18.8,1.3-34.6c0.1-0.4,0.2-0.8,0.2-1.2
		c-0.1-2.1,0-0.7-0.6-1.3c-1.8,4.3-3.6,9.5-5.2,14.1c-3.3,9.3-2.4,9.8-16.3,8.9c-0.2-7,6.6-13.3,2.2-20.4c-1.9-3-10.4-11.9-15-11.9
		C391.9,666.9,397.6,668.2,397.6,676.1z"/>
	<path class="st3" d="M434.6,749.9c1.9-4.8,0.3-21.3,0.3-27.8c0-6.2,1.5-21.1,3.1-26.8c6.2,3.1,9.8,13.2,12.7,14.9
		c7.3,4.3,4.5-12.2,6.5-20.9c0.9-3.9,1.5-14.1-0.3-17.5c-1.3,1.8-0.9,4.9-2.3,9c-3.3,9.8-5,7-9.3,6.4c-2.1-0.3-4.1,0-6.3-0.2
		c0.2-11.3,5.5-11.4,3-17.9c-2.2-5.7-8-9.1-14.1-8.2c-3.6,3.5-0.5,6,0.9,9.3c1.2,2.9,0.6,9.7,0.3,13c-0.9,9.2-1.8,17-2,26.4
		c-0.5,17-6,13.7-3.5,23.1C424.9,737.8,430.7,749.2,434.6,749.9z"/>
	<path class="st3" d="M371.4,691.9c-1.8,3.3,2.4,13.6,4.1,16.5s2.6,3.4,5.4,5.3s9.8,4.5,10.2-1.2c0-1.4-0.1-2.8-0.4-4.1
		c-2.3-15.2,4.2-24.1-1.7-25.6c-1.8,1.6-2.6,6.9-5.8,10C378.9,696.6,374.4,690.7,371.4,691.9z"/>
	<path class="st3" d="M657,504.3c-0.3,3.3,8.2,1.7-1.9,14.3c-0.8,1-1.9,1.8-2.8,2.7c-7.7,7.9-19.5,18.8-29.8,22.2
		c-3.6,1.2-4.7,2.6-4.7,6.9c0,25.7,15.1,2.4,26.9,4.7c0.8,2.7-2.6,7.5-4,9.8c-8.8,14.6-13.5,4.5-14,15.6c-0.3,6.9-0.3,16.3,7,10.8
		c1.5-1.1,2.4-1.9,4-2.9c2.5-1.6,7.2-4.1,10.4-1.8c1.8,4.3-1.2,12.3-3.2,15.5c-3.1,5-7.2,4-7.2,12.9c0,5.3,1.5,12.4,4.9,14.3
		c5.8,3.1,7.1-5.6,8.4-9.4c2.3-7.1,6.4-14.2,8.1-20.3c0.8-2.8,0.6-5.5,1.7-8c5.2-11,6.7-14.9,14.9-23.2c1.6-1.6,3.5-2.8,5.6-3.7
		c6.6-2.4,9.7,5,13.2,5.8c4,0.9,5.4-1,8.5-1.5c-0.6,1.7-1.6,3.2-2.8,4.5c-0.5,0.7-1,1-1.6,1.6l-12,13.1c-2.8,2.3-12.7-1.6-12.6,9.2
		c0,17.9,15.8,4,35.3,4.1c6.8,0.1,13.5,1.1,20,2.9c5.6,1.4,16,2.9,13.1-6.6c-1.6-5.1-6.8-9.8-11.2-12c-6.8-3.4-11.9,0.5-19.2,0.8
		c0.9-4.5,6.2-11.3,8.5-14.2l10.1-12.6c1.3-3,1.4-6.4,0.4-9.6c-1.4-3.5-11.4-8.1-14.3-8s-3,1.7-7.5,4c-5,2.5-9.9,4.9-15.3,7
		c-10.8,4.3-16.8,2.8-27.3,18.3c-3.1,4.6-5.7,9.1-8.6,14.1l-5.7-7.8c3.8-10.7,16.3-16,9.2-26.1c-3.1-4.4-5.5-4.2-7.1-6.6l9-7.6
		c3.2-2.6,6.6-5,10.2-7c2.7-1.4,5.3-2.3,6.3-5.3c2-6.5-3.8-12.3-7-14.6C670.1,508.6,662,502.3,657,504.3z"/>
	<path class="st3" d="M141.8,537.2l-16.7,9.2c-2.9,1.6-5.5,3.2-8.4,4.6c-4.7,2.2-7.9-0.7-11.3,0.3c-0.1,0.1-0.2,0.2-0.2,0.3
		s-0.1,0.3-0.1,0.4c-0.2,1.7-0.2-0.9-0.1,0.8c0.1,2.3,3.5,7.6,4.6,9.3c1.9,2.8,4.6,6,8.6,7.1c10.6,2.9,10.8-7.3,20.8-10.9
		c-0.2,9.8-5.3,16.3-11,19.7c-4.2,2.5-6.5,1.5-7.4,7.8c-0.9,6.1,1.3,16.2,7.6,10l6.5-6.1c1.1-0.9,2.1-1.9,3.1-3
		c1.8,13.9-5.5,24.3,4.8,36.1c1,1.2,1.9,2.4,4.2,2.2c3.4-8.2-3.2-25.6-0.9-43.6c0.7-5.8,0.8-4.8,7-12c1.4-1.6,3.6-3.7,3.7-6.1
		c-2.7-0.5-4.2,1-6.1,1.9c0.1-4.9-1.6-11.3,1-15.3c0.8-1,4.7-2.8,7.7-5.8c2.1-2.1,4.8-4.8,4.4-9.3c-0.9-1-2-1.9-3.2-2.7
		c-2.2-1.3-2.2-1-3.6-2.7c-0.3-6.2,3.7-9.4-1.9-14.9c-2.4-2.4-9.2-6.2-14.1-5.9c-5.2,5,0.2,7.5,1.9,11.6
		C144.4,524.8,142.3,532.5,141.8,537.2z"/>
	<path class="st3" d="M199.5,507c3.6-0.4,9.5,3.7,10.7,5.3c1.5,2,1.9,4.6,1.2,7c-0.8,2.9-1.9,2.7-4.3,3.7c-1.7,1-3.3,2.2-4.8,3.5
		c-1.2,1.1-2.9,2.3-2.3,5.2c0.6,2.7,2.9,1.1,5.8,0.7c6.2-0.9,14.6-0.3,18.3,5c2,2.8,3.2,9.5,1.2,12.7c-3.5,2.5-21.1,0.8-26,0.3
		l-0.5,16.2c11-2.2,19.9-3.3,29.6,3.8c5.4,3.9,8.1,7.3,6.1,14c-2.2,7.5-1.4,17.3-3.7,25.1c-1.8,6-7.2,15.1-11.1,17.7
		c-3.3,0.1-7.9-4.6-9.9-6.2c-1.8-1.5-6.1-5.7-6.3-9.4c12.5-1.1,15.1,6.6,17.7-20.4c0.4-3.1,0.6-6.3,0.6-9.4
		c-0.4-5.8-7.9-13.1-18.3-9.2l0.7,6.6c2.4,1.7,4.8,1.3,6.6,3.6c1.5,1.9,3.2,4,2.8,7.3c-1.8,1.5-3.4,1.2-6.3,1.2
		c0.4,2.4,2.5,4,0.9,7.3c-2.4,4.9-4.6,1.1-7.1,11c-0.9,3.7-4.1,0.1-12.9,5.3c-9.4,5.6-9.1-8-10.4-13.1c-1.5,0.3-1.9,0.6-3.7,0.4
		c-1.4-1.4-1.4-2.6-1.3-4.7c0.9-2.2,1.6,0.8,1.4-5l3.8,0.1c1-2.4,3-5.4,2.4-8.5c-1.8-2.8-7-2.3-9.3-0.2c-2,2.3-3.6,4.9-4.7,7.7
		c2.1,4.1,2,5.8,2.1,11.2c0,2.2,0.1,4.3,0.1,6.5c0,1,0,2.1-0.1,3.1c-0.9,4.7-5.6,0.8-7.9-2.9c-5.5-8.9,0-14-3.3-19.9
		c-1.3-2.4-4.8-4.5-5.1-6.6c4.3-1.9,8.5,2.2,11.2,3.8c2.6-11.7,15.1-14.5,25.8-17.3c-0.6-1.3-1-2.6-1.3-4l1.6-0.3
		c1.1-2.4,1.5-11.9,0.1-13.9c-2.6-3.5-9.4,0.6-10,0.8c1.5,2.5,5.6,4.2,5.9,8c0.4,4.4-14.7,17.3-22.9,15.9c0.3-3.5,1.9-2.5,4-5
		c3.1-3.8,11.3-9.6,7.8-15.5c-3.1,1.3-10.5,7.3-14.5,6c-2.7-2.8-0.6-8.5,1.7-9.9c1.7-0.8,3.4-1.4,5.1-1.9c10.2-3.9,10.6-7.2,13-8.3
		c2.7-1.2,3.8-0.4,9.8-4c-1.4-1.9-3-3.2-2.8-7.1c0.2-3.2,0.8-5.5,3.3-6.4c3-1,9.6-5.2,10-8.8c-4.4-0.7-15,10.5-18.8,13.5
		s-7.7,9.1-11.3,7.6c-2.6-1.9-3.5-8.3-2-12c1.4-3.4,4.3-7.5,7.5-8.5l1.4,1.5C186.3,517.6,196.6,507.3,199.5,507z M187.7,578.4
		c0.4,8.6,0.8,6.2-1.7,13.8c2.1-0.4,4.2-1,6.2-1.9c2-0.8,3.8-2,5.3-3.5c-0.4-3.5-1.1-1.4-0.8-7c0.1-1.2,0.2-2-0.4-2.5
		C194,576.4,190,577.3,187.7,578.4L187.7,578.4z M195.8,543.1l2.5,2.9c4.1-0.8,11.6-4.7,12.4-7.3
		C206.6,537.3,197.9,540.7,195.8,543.1L195.8,543.1z M183,598.8c0.4,2.9,1.2,5.4,2.9,6.8c4.7,0.3,12.7-3.3,11.2-7.9
		c-0.9-0.4,0-0.5-1.6-0.1C190.1,599.2,192.7,602.2,183,598.8z"/>
	<path class="st3" d="M388.5,348.1c-0.3,1.4-0.9,1.7-1.8,2.5c-0.3,0.3-0.7,0.7-0.8,0.7c-1.2,0.9-0.9,0.3-2.1,0.9l-8.4,6
		c-2,1.1-1.6,1.8-3,2.9c-0.9,0.7-2.6,1.1-3.9,2l-11.2,9.1c-0.4,0.5-0.9,1.1-1.4,1.5c-2,1.8-3.9,3.7-5.7,5.7c-1,1.1-2,2-3,3
		c-1.1,1.2-1.4,2.4-2.3,3.2c-1.1,1-2.5,0.7-3.5,2.4l-1.9,3.5c-1,4.8,3.7,8.9,6.6,12.1l18.5,15.7c1.6,1.1,0.5,0.8,1.7,1.8l4.4,3
		c2,1.2,2.5,2.9,4,3.9c1.8,1.3,2.9,1.7,4.6,2.8c1.9,1.2,0.6,1,2,2c1,0.7,1.3,0.3,2.4,1c1.8,1.1,2.3,2.3,4.2,3.3
		c2.5,1.3,4.1,3.5,6.6,4.8c3.7,1.8,2.6,3,5.6,5.3c2.8,2.1,4.3,2.3,4.2,4c0,0.1-0.2,0,0.2,0.5l1-0.5c1-0.5,1.5,0.4,2.5,1.1l-1.6,2.3
		l-5.2,0.6c-0.6-0.9-0.1,0.3-0.8-1.5c-0.3-0.8,0-0.2-0.3-1.2c-8,0.3-5.5-2.7-11.9-3c0.6,2.3,2.6,1.9,4.5,3.1c1.8,1.1,2,2.6,3.4,3.5
		c4.7,3,1.3,3.4,10.4,3.5c-1.3,2.2-0.5-0.8-1.3,1.9c2.4,0.2,2.3-0.1,4.3-0.7c0.1-1.2,0-1.7,0.4-2.5c0.7-1.3,0.1-0.7,1.6-1
		c7.3-1.7,6.4-0.5,11,2.7l5.7,4.7c1.3,1.1,1.3,1.5,2.5,2.5c3.1,2.8,2.8,2.2,6.1,4.3c0.9,0.6,1.6,1.5,2.8,2.2
		c4.5,3,11.5,6.3,13.2,7.5c0.9,0.7,0.6,0.2,1.6,1c0.4,0.4,0.8,0.8,1.2,1.3l9.1,6.3c1.9,1.3,3.4,1.5,5,2.9l13.9,8.8
		c5.4,3.5,7.8,3.4,12.5,8.4c1.8,1.9,1.7,0.3,3.5,2c1.8,1.7,0.3,1,1.1,2.7c1.4,3.3,4.4,1.7,4.5,5.7c2,0.6,3.3,1.8,5,2.8l4.9,3
		c3.8,3.2,11.2,6.1,15.7,8.1c1,0.4,2.2,0.6,3,1c1.7,0.6,1.2,0.9,2.3,1.6c0.9,0.6,4,1.9,5.4,2.5c3.7,1.9,2.3-0.7,4,3.2
		c-3.5,0.7-2.2,0.8-4.8-0.9c-0.4-0.3-18.6-5.2-21.7-7.6l-6.7-2.7c-1.2-0.4-2-0.1-2.8-0.7c-1.1-0.8-0.1,0.2-0.1-0.5
		c0,0,0.1-0.2,0.1-0.2c0-0.1,0.1-0.1,0.1-0.2c0-0.1,0.1-0.1,0.2-0.4l-2.5-1.5c0.5,1.3,1,0.8,1.4,2.4c-2.6-1.1-5.4-1.8-8.2-2.2
		c-0.7-0.8-1.4-1.8-1.9-2.8c-3,0.2-2,0.8-4.7-0.9c-1.9-1.3-2.4-0.6-4.4-1.5l-4.2-2.2c-1.1-0.5-3-0.3-4.5-0.5l0.4,1.2
		c0.1,0.1,0.4,0.8,0.5,0.9c0.9,1.4,6.1,3.9,8,5c0.4,0.2,0.3,0,1,0.5c4.9,3.7,12.5,5.2,17.7,7.9c1.9,1,0.7-0.2,1.1,1.3
		c-1.7,1.2-4.4,0.3-6.5,0.3c0.7,2.2,0.8,1.4,3.7,2.6c0.7,0.3,1.4,0.6,2,1l2.2,0.8l1,0.5c0.9,0.4-0.1,0.1,1.1,0.4
		c1.7,0.5,0.3-0.3,2.2,0.7c1.3,0.5,2.5,1.1,3.7,1.8c1.5,1,0.1,0.4,2,1l2,0.7c2.7,0.6,5.4,1.6,7.9,2.8l3.5,1.9c2.6-0.4,2.7,0.2,4.4,1
		c3.6,1.5,7.4,2.7,11.3,3.5c3.8,0.9,0.4,1.3,4,1.6c2.5,0.3,0.3-0.9,3.4,0.4c1,0.4,2.7,0.9,3.7,1.4l3.4,1.6c6.2,3.1,5.7,2,9.1,3.7
		l3.4,1.6c4,2.3,7.6,2.5,11.8,3.6c1.2,0.3,0.9,0.5,1.7,0.8c1.6,0.6,2.3,0,3.8,1c-0.3,2.8-1.3,1.5-3.8,1.7h-2.8
		c-2.3-0.5-2.6,0.8-5.6,0.2c-2.2-0.5-4.5-0.3-6.5,0.6c-1.7-1.6-5.6-1.3-8-2c-4.9-1.3-4.2,0.3-6.8-0.6c-1.4-0.5-6.3-1.7-7.1-1.5
		c-2.6,0.7-1,0.5-3.7,0c-1.6-0.3-2,0.2-3.6,0.2c-0.6-0.6-1.2-1.1-2-1.4c-2.4,0.6,0.1,0.7-2.7,0.6c-3-0.2-6.2-1.6-9-2
		c-1.7-0.3-1.8,0-3.4-0.5l-1.8-0.7c-2.7-1.2-4.2-0.3-7.3-2.1c-1.9-1.1-4.1-1.2-6.1-1.7c-2.2-0.6-3.3-2.3-5.2-2.4
		c-2.3-0.1-3.3-1-5.5-1.9c-3.8-1.6-7.7-3-11.6-4.2l-6.1-1.9c-2.1-0.7-3.5-1.9-5.4-2.5c-2.7-0.8-3,0.3-6.5-1.5s-5.6-1.4-8.9-3
		c-1-0.4-2-0.8-3.1-1c-2.8-0.9-5-3.5-7-4.8c-0.9-0.4-1.7-0.9-2.5-1.5l-24.7-14.9c-2.4-2-3.3-1.7-5.3-2.7c-1.7-0.9-5.8-4.7-9.5-6.4
		c-2.4-1.1-2.5-2.3-4.5-3.4l-7.6-4.3c-1-0.6-1.7-0.8-2.7-1.4c-1.8-1.1-3.5-3.1-7.1-4.8c-3.2-1.4-3.4-2.6-4.7-3.3l-9-4.9
		c-1.9-1.2-2.3-0.9-2.4-3.2c-2.3,0.3-2.3,0.5-4.7-1.1c-1.9-1.1-2.3-1.9-3.8-3.2c-2-1.6-6.6-3.5-7.5-5.9c-4.1-0.2-5.6-3.6-8.4-6
		c-3.4-2.8-0.6,0.4-4.5-3.5c-0.9-0.9-6.2-2.4-8.1-3.3c-2.9-1.4-3.9-3.1-6.8-4.1c-3.5-1.3-4.1-3.3-6.8-4.5c-2.5-1-4.7-2.5-6.7-4.2
		c-2.2-2.1-5.6-3.5-7.6-5.7l-0.8-0.7l-0.3-0.2c-3.3-2.7-7.7-4.7-11-7.4l-6.7-4.2c-2.6-1.9-4.3-2.3-6.5-4.9c-0.9-1.1-1.3-1.7-2.5-2.9
		c-3.1-3.1-5.8-6.5-8.1-10.2c-0.2-0.3-0.4-0.6-0.5-0.9l-1.8-3.8c-2.1-5.2-1.2-15-1.2-20.8c2.5-1.6,1.4,0.1,2.7-3
		c1.1-2.6,2.1-6.3,3.9-8c3.1-2.8,7.6-9.4,10-10.8l3.1-2.9c0.8-0.7,0.8-0.5,1.4-1.1l4.6-4.3c0.9-0.7,1.1-0.5,1.9-1
		c2.8-1.9,1.5-3.6,4.9-4.8c0.1,0,0.2,0,0.3-0.1l0.3-0.1l0.7-0.7c0.1-0.1,0.8-0.6,0.8-0.7c1.5-1.4,1.8-4.5,1.9-6.1
		c0.5-9.2-0.6-9.4,2.1-11.4c-0.6-4.8,1.6-9.9,1.1-14.5c-0.4-3.5,0.5-2.6-1.3-3.1c-1.9,2.5-1,12.8-1.6,15.9c-1.6-2.1-0.5-2.8-0.5-5.3
		c0.1-3.7-1-2.3-1.9-4.9c-1.3-3.5-0.6-8.5-0.6-12.4c-0.6-1-0.5-0.6-0.4-2l-1.6-1c0.1-1.9,0-3.7-0.2-5.6c-0.1-1.6,0.1-3,0.1-4.8
		c0-4-0.6-6.3-0.9-10.4c-5-2.7-0.6-2.5-2.8-7.9l-0.7-12.3c0.4-2.9,0.1-2.3-0.1-5.2c-4.4,1.3-8.7,5.8-13.1,6.8
		c-3.9,0.8-2.6,2-5.9,3.3c-1.9,0.8-1.4,1.3-2.9,2c-1.8,0.8-1.9,0.1-3.6-0.2c-1.8,2.7-6.2,4.6-9.4,4.4l-1.5,1.6
		c-1.8,1.2-3.8,1.9-4.9,0.4c1.2-1.2,0.4-0.1,1.7-1c1.4-1,0.5-0.3,1.4-1.7l2.6-3.6l-0.8-4c1.1-0.4,2.1-1.1,2.8-2.1
		c1.1-1.7,0.8-1.1,2.7-2.4l-0.1-2.2l-2.5-0.8c1.1-1.3,0.8-0.7,1-3.1c1.5-0.5,6.9-4.1,8.5-5.3c2.1-1.5,2.1-3.6-1-3.1
		c-3.3,0.6-2,2-5,2.1c0-3.1-0.3-1.1,1-2.5c1-1,0.6-0.9,1.6-1.9l7.7-6.1c6-3.7,0.9,0,5.7-4.2l3.9-3c2.1-2.3,9.2-4.4,9.7-7.1
		c1.2-5.9-1.6-18-0.8-24.1c1.1-8,0.1-16.2,0-24.2c0-2.5,0,0.1,0.6-2.2c-1.9-2.9,1-6-0.4-10.7c-0.4-1.3-0.7-0.5-0.6-3.1
		c0-3-0.2-6-0.7-8.9l-0.3-6c-0.6-5.1-0.4-10.3-1.3-15.4c-0.6-3.3,0.9-1.3-0.7-6.3c-0.8-2.7,0.5-2.5,0-5.5c-0.3-1.8-1.2-3.3-1.2-5.4
		c0-2.8,0.2-2.4-0.4-5.3c-1.4-6.2-1.3-17.6-1.2-24.2c1.1-0.1,2.1-0.7,2.7-1.6c3.1-4.1,12-2.5,15.2-0.3l3.8,2.2
		c0.6,0.3,1.6,0.6,2,0.9l5.6,6.3c1.8,3.1,2.6,2.7,3.9,4.6c0.4,0.6,0.8,1.2,1.3,1.7c4.6,5,2.1,3.4,4.7,7.2c0.4,0.5,0.6,1.1,0.9,1.6
		c0.7,1.3,1.4,2.6,2.2,3.8c4.5,7.1,4.5,9.8,7.4,15.9c2,4.1,3.5,8.3,4.7,12.6c0.9,3.7,1,5.6,2.5,9.4c1.1,2.8,1,6.5,1.7,9.6
		c1,4.2,1.3,11.6,2.9,15c2.2,4.9,3.4,17.5,4.2,19c1.2,2.5,1,1.1,0.9,4.6c2.4-0.6,0.4,0,2.2-1.3c1.3-0.9,0.5-0.4,2.1-0.9
		c4.2-1.4,8-4.6,11.6-6.2c1.4-0.7,2.8-1.4,4.2-2.3l12.2-5.7c10-2.4,8.6-3.2,11-4.3c3.5-1.5,8-2.2,11.3-4.1c1.3-0.7,2.6-1.4,4-1.9
		l18.3-6c8.9-3.3,18.8-5.2,27.7-8.5c8.4-3.1,31.5-7.3,41.7-6.8l1.5-7c0.6-8.9-0.6-18.2-1-26.8c-0.3-5.8-1.5-11-1.6-16.9
		c0-2.8-0.4-5.5-1.1-8.2c-0.5-1.7-0.7-5.9-1-8c-0.5-3.8-1.4-12.3-2.4-15.8c-0.8-2.8-2-4.1-1.8-7.5c0.2-4.3,1.7-10.6,6.3-12
		c1.4-0.4,5.2-1.7,6.7-1.5c12.8,1.8,11.9,2.7,20.2,7.5c3.8,2.2,11.3,10.8,12.6,14.7c0.8,2.3,1.5,5,2.2,7.2
		c2.2,6.9,5.5,13.5,7.6,19.6c1,3,2.3,11.4,2.8,14.6c0.8,5.4,1.6,11.1,2.4,16c0.4,2.5,0.4,6.1,0.7,8.8c0.3,3.1,0.2,5.4,0.3,8.4
		s1.1,5.3,1.2,8.4l1,7.9c2.6,0.2,5.2,0.8,7.8,1.7c2.1,0.8,4.2,1.7,6.2,2.7c13.2,7.3,16.7,24,14.5,38.8c-0.6,4.1-2.6,10.1-5.7,12.8
		c-2,1.8-1.9,2.9-3.6,5.3c-2,2.8-4.4,4.4-6.7,6.7c-0.9,0.9-1.5,0.9-2.5,1.9c-2.8,2.6-2.6,3.1-4.2,4.8l-4.7,4.4
		c-0.9,0.6-1.7,1.3-2.4,2c-1.1,0.9-1.8,0.8-2.8,1.6c0,3.7,0.5,9.6-0.1,13.2c-0.6,3.6-1.5,7.4-1.1,11.1c0.1,0.7,0.3,0.4-0.1,1.1
		c-0.6,1.1-0.3,0.5-1.2,1.2c-0.2-2.7-0.6-7.6-1.8-9.4c-2,3.8-0.4,9.1-4.5,11c-0.7-1.2-0.4-1.4-1.5-1.9l0.1,8.1
		c0,6.9-1.1,8.3-1.4,15.4c-0.1,2.5-1,4.8-1.2,7.4c-1.8,1-0.8-0.4-1.3,1.5c-1.1,7.5,0.8,7-3,15.4l-0.9,2.8c-0.1-2.5,0-4.9,0.4-7.4v-4
		c0-0.1,0-0.3,0-0.4c0.1-2.5-0.8-13-2-15.3l-2,10.3c-0.7,2.6-0.3,6.4-2.3,8.6c-0.1-2.4,0.1-10-0.6-11.3c-2.2,2.7-1.4,10.6-2.7,14.4
		c-1.5,4.2,0.2,10.9-2.7,14.2c-1-0.6-1.3-1.8-2-2.8c-0.8,2.3-2.5,3.4-2.6,6.6c0.1,1.1-0.2,2.2-0.7,3.1c-1.3,3.1,0.5,2-1.5,11.5
		l-0.8,7c-0.8,3.8-2.1,10.8-4.2,14.2l-4.2,8.9c-0.1,0.6,0.4,0.9-0.3,1.6c-1,1-1-0.1-1-0.1c-0.1-1.4-0.1-2.9,0-4.3
		c0.6-2.5-0.4-1.8,0.3-4.3c1.8-7.1-0.3-7.5-0.3-10.2c0.4-1.8,0.8-1.5,0.8-3.5c0-2.9,1.4-7.9,0.3-10c-1.2,0.6-0.8,0.9-1.7,2.3
		l-1.7,2.1c-0.4-4.2,1.6-10.5-1.4-14.3c-0.3,1.8-0.7,3.1-1.1,5l-1.6,4.1c-0.4-3.2-0.6-12-0.1-14l-0.7-0.5l-0.6-0.6
		c1.2-1.5,0-7.9,0.2-9.7c0.3-3.5-0.7-9.3-0.4-11.9c0.2-2.5,0.7-1.7,0.6-5c-0.1-4.1-0.6-8.4,0-12.4c0.5-3.1,0-2.1,0-5.1
		c-3.8,0.4-0.9,2.1-5.6,3.7l-2.7,1.8c-1,0.9,0.1,0-1.3,0.8l-4.6,1.9c-1.9,0.4-5,3.5-11.4,5.3c-3.4,0.9-3,2-5.1,3.1
		c-1.8,0.9-0.3-0.6-5,2.5l-5.5,2.9c-2,0.8-3.4,2.4-5.3,3.3l-5.3,3.1c-0.8,0.6-1.6,1.1-2.4,1.6c-1.8,0.8-4.6,1.3-6,2.3l-3.8,2.6
		c-0.4,0.3-0.8,0.5-1.2,0.9l-9.4,4.5c-2.9,1.7-1.5,2.4-3.9,3.5c-0.5,0.2-0.9,0.4-1.3,0.6c-2.3,1.4-4.5,2.3-5.7,4.8
		c-2.9-0.1-6.3,1.5-8.5,3.4c-0.6,0.7-1.4,1.3-2.3,1.6c-1.6,0.5-2.1,1-3.8,1c0.1-2.7,0.6-2.3,2.5-3.3c1.6-0.9,1.7-2.6,4.6-4.4
		c1.9-1.3,4-2.3,6.2-2.9l-0.8-1.6l3.4-3c1.9-2.2,2.2-0.4,2.7-3.3c1.6,0.1,3.2-0.5,4.4-1.5c2.3-1.8,0.8-1.7,6.1-4.9
		c1.1-0.6,1.8-1.7,1.9-3c-1.6,0.1-1.1,0.7-3.2,1.1c-2.8,0.5-1,0-3.4,1.6c-2.1,1.4-1,1.4-2.6,2.5c-0.7,0.4-0.2-0.1-1,0.5
		c-1.5,1.1,0.8,1-2.2,1.2c-0.7,2.7,0.3,1.1-1.3,2.2l-1.9,1.5c-0.7,0.4-1.4,0.9-2.1,1.5c-1.2,1-0.1,0.4-2,1c-3.6,1.2-1.4,1.3-3.7,3.2
		c-1.7,1.4-2.1,0.3-4.2,2.3c-1.4,1.4-0.9,0.6-2,1.4l-0.8,0.8c-2.2,2.7-1.9,1.5-4.8,3.7c-1.9,1.4-4.7,5.6-5.9,6.2
		c-0.8-0.7,1.4-0.8-1.9-0.7c-0.1,1.1-0.5,0.6,0.2,1.5l1.3,1L388.5,348.1z M351.1,315.6c0.7-1.8-0.1-0.8,1.2-2c0.5,0.9,0.7-0.2-0.1,2
		l1-0.1c1.3-0.9,1-0.3,0.4-2.2c1.7-0.3,4.2-1.4,5-3l1-1c1.4-1.5,3.5-1.6,5.3-2.7c0.8-0.5-0.1-0.1,0.5-0.4c1.7-0.7,0.3,0.4,5.7-2.5
		l0.1,1.9c0.9-1,0.6-0.8,2.2-1.3l-1-0.7c0,0-0.1-0.2-0.1-0.2c0-0.1,0-0.2,0-0.3l1.7-1.2l-1.3-0.9l16.2-9c0.1,0,0.3-0.1,0.4-0.1
		l18-13.2c2.5-2.2,2,0.3,4.9-3.3c1.8-0.5,2.1-0.2,3.5-1.1c2.6-1.6,3.1-2.7,5.4-3.6c2.1-0.8,3-1.9,4.8-2.7c0.1,0,0.3-0.1,0.4-0.1
		l6.2-4.5c1.8-1.4,0.2-1.6,3.4-1.7c0.5-2.2,1.1-2,3.4-2c0.5-1.6,0.5-1.8,1.5-2.4l9.6-6.2c0.9-0.3,1.8-0.8,2.5-1.5l5.3-3
		c3.2-1.2,2.4-2,5-3l2.4-1.5c1.1-0.9,1.5-0.8,2.7-1.7l6.6-4.8c1.4-1,3-1.2,4-2.5c1.2-1.4,1.3-1.4,3.4-1.6c0.5-2.5-0.1-0.7,1.9-2.1
		s4.7-4.1,7.8-4.2c0.6-2.8,2.4-2.2,4.2-3.6l5.5-5.5c2.1-2.4-0.7-3.8-3.1-4.3s-2.7-0.1-3.6-2.1c-2.4,0.1-2.7-0.6-4.8-1
		c-1.3-0.3-3.9,0-5.9-0.4c-0.9-0.2-1.7-0.1-2.6-0.4s-1.7-0.8-2.6-0.9c-2.4-0.4-3.9,0.4-5.9,0.5c-2.3,0.2-4.5-0.5-6.5-0.3
		c-2.4,0.2-0.3,0.3-2.5,0.7c-1.7,0.3-1.8-0.2-3.3,0.1c-1.9,0.4,0,0.6-2.4,0.3c-2.9-0.4-2,0.3-3.4,0.6l-3.7,0.2
		c-2,0.4-3.9,0.2-5.9,0.6c-2.4,0.4-3.3,1-5.2,1.4c-3.4,0.7,1-0.1-2.3-0.3c-1.6-0.1-1.7,0.4-2.8,0.7c-1.8,0.4-3.6,0.6-5.4,0.5
		c-2.7-0.3-7.2,1.5-10.3,2l-8.4,1.4c-1.2,0.2-0.4-0.3-1.4,1.4l1.6-0.2c0.1,0,0.3,0.1,0.3,0.1c0.1,0,0.2,0.1,0.3,0.1
		c-0.6,1.3,0.3,0.6-1.1,1.3c-1.6,0.7-3.9,0.5-5.2,1.2c-2.4,1.3-3.3,2.3-6.4,1.6c-1.4,1.3-4.8,3.3-6.5,3.6s-3.1,1.8-5.4,2.3
		c-2.6,0.5-3.6,1.4-6,2.2c-1.9,0.6-3.9,2.9-7.7,3c-1.2,0-8.7,4-11.1,4.4c-1.2,0.2-1.2,0-2.3,0.9c-1.7,1.4-1.8,2.6-2.1,4.8
		c-0.4,3.1-1.4,6.1-2,9s-0.7,1.3-1.8,3.6c-0.8,1.7-0.6,2.7-2.9,2.7c-0.4-3.3,1-4.7,0.4-8.3c-0.9-5.1-0.8-1.9-1.1-8.4
		c-1,1.3-0.3,2.6-1,4c-0.5,1.2-1.3-0.6-0.5,4.2c1.1,6,0,14.9-3.3,19.8c-0.6,1.2-1.1,2.4-1.6,3.6c-0.2-2,0.4-2.5-1.1-3.3
		c-1.6,2.6,0.3,7.4,0.8,10.3c-0.5,0.6-1,1.1-1.6,1.5c0.3,2.6,1.2,3.3-1.6,4.3c0.1,1.2,0.1,2.4-0.1,3.5c-0.6,2.4-0.8,0-0.7,2.3
		c0.1,2.1-0.2,4.2-0.8,6.1c-0.7-0.5-1,1.2-0.6-2.5c0.3-2.5-0.3-1.6,0.1-3.4c0.6-2.4,0.6-4.8-1.5-6.1c-0.8,0.9-0.3-1-0.8,1.2
		c-0.6,2.5,0.1,3.5-2,5.3c0.2,1.7,0.6,1.9-0.2,3.4c-0.4,1.1-1.2,2-2.3,2.5c0.1,5.4,0.2,3.1-1.4,7.7c-1.5,4.1-0.6,7.9-2.1,11.8
		c-0.5,1.3-1.4,1.7-2.7,7.2c-0.4,1.5-0.1,2.7-0.6,4.4c-1.3-0.8-1.1,0.4-0.9-1.8c0.3-3.4-0.2-1.9-0.2-4.9c0-1.6,0.3-2.8-0.5-4.1
		c-1.1-1.9,0.4,1.7-0.4-0.6c-0.6-2,0.5-2.7-1.2-4.2c-1,0.9-3,6.6-3.8,8.2l-0.5-9c0-2,0.9-1.7-1.2-2c-0.4,1,0.1,2.5-0.9,4.4
		c-2.4,5.1-2.4,0.8-3.4,8.8c-0.1,0.8-0.5,0.6-0.8,2.5l-3.5,14.9c-0.7,2.7-1,5.5-0.7,8.3c2.6-0.1,6-4.1,8-6l5.1-4.3
		c0.8-0.4,1-0.3,1.7-0.8l4-3.4c2.1-2.3,13.5-10.2,13.7-10.5c1.1-1.7,0-1.4,2.3-2.4c1.7-0.8,2.1-1.6,3.3-3s1.7-2,3.3-2.6
		C350.4,315.4,350,315.7,351.1,315.6L351.1,315.6z M560.5,215.7c2.1,0.8,2.5-0.7,3.5-2c1-1.1,1.9-2.4,2.7-3.7c1.5-3,3.5-6,3.2-10.3
		l1.8-0.6c-0.4-5.9,2.1-3.6-0.4-12.9c-0.6-2.2,0.6-2.5-2.2-2.6c0,0.2,2.5,6.7,1.5,11.8l-6,13.4C563.2,210.4,560.8,213.8,560.5,215.7
		z M319.2,402.3c-0.4-2.5-0.4-1.1-0.8-2.1l-1-7.6c0.2-2.8,1.5-5.3,1.7-6.5c0.1-0.5,0.1-0.9,0-1.4c-0.2-1.1-0.1-0.4-0.5-1
		C315.8,385.4,314,398.5,319.2,402.3z M319.5,382c2.3-1.1,1-1.2,4.6-5.1c1.8-2,4.7-5.4,6.6-6.7c1.7-1.1,1.1-0.2,2-1.9
		C329,369.3,319.9,377.2,319.5,382L319.5,382z M317,411c-1.3-4.3-2.1-3.1-3.3-9.9c-0.3-1.5,0.8,0.3-0.6-1.4
		C312.1,402.5,313.8,410.5,317,411z M441,307.1c2-0.3,3.5-1.1,5.5-1.7c1.9-0.5,3.5-0.6,3.7-2.8c-2.7-0.1-3.3,1.6-7.2,2.7
		C440.5,306.1,441.5,305.5,441,307.1z M326.2,307c-0.4-2.4,0.2-3.4,0.2-5.6c0-1.5-0.4-3.5-0.5-5.5c-1.5,0.1-1.6-0.9-1.2,1.8
		c0.9,6-0.4,2.2,0.5,6.6C325.8,306.6,325.3,305.8,326.2,307z M324,417.4c-2.2-2.1-2-0.7-5.4-4.5c-1.5-1.6,0-1.1-2.4-1.1
		c0.5,1.4,1.4,2.6,2.5,3.5c1.5,1.4,2,0.6,3.8,2.5L324,417.4z M324,410.9c-0.3-2.4-1.8-2.6-3.6-4.2c-1.5-1.3,0-0.7-1.8-1.2
		C317.8,407.9,322,410.2,324,410.9z M497.2,274.1c2.1,0,6.4-1.5,6.3-4.8C499.7,273.3,498.3,271.7,497.2,274.1z M327.2,377.1
		c3.2-1.4,0.5,0.2,2.7-2.9c0.7-1,1.4-1.5,2.2-2.8c-1.1,0.5-2.2,1.1-3.2,1.8C327.7,374,327.4,375.6,327.2,377.1L327.2,377.1z
		 M333.6,369.7l6-5.2c0.1-0.1,0.4-0.4,0.4-0.6l0.3-0.6c0.5-1.7,0.1,0.5,0-0.8c-2,0.3-0.4-0.3-1.8,1.4l-3.3,3.8
		C334,369.1,334.2,367.6,333.6,369.7L333.6,369.7z M394.8,448.6c1.5,0.3,4.3,0.8,5.4,0.1c-0.8-0.4-1.7-0.7-2.6-0.8
		C394,447,395.7,447.5,394.8,448.6L394.8,448.6z M538.9,305.2c0.5-0.8,0.6-1.7,0.5-2.6c0-3.4-0.1-2.5-0.8-3.2
		C538.2,300.6,538.4,303.3,538.9,305.2z M324,417.4l0.4,2.1l3.5,0.2C326.6,418.8,326.1,418,324,417.4z M556.8,222.9
		c1.1-0.1,2.2-0.5,2.2-1.8c0-1.1-0.2-0.7-0.5-1.2C557.2,220.8,556.7,221.4,556.8,222.9z M322.6,311.1c0.9-1.2,0.9-2.9,0-4.1
		c-0.4,0.7-0.6,1.5-0.7,2.3C321.5,311.5,321.5,310.9,322.6,311.1z M572.3,170.6c0.7,1.4,0.9,1.2,2.6,1.5
		C574.9,169.8,574.4,169.4,572.3,170.6z M554.7,226.4c1.5-1.2,1.8-0.2,2.1-2.3l-1.5-0.6C554.7,224.4,554.5,225.4,554.7,226.4z
		 M389.7,348.2c0.8,0.1,0.6,0.3,0.4-0.6c-2-1.3-0.8,0.1-1.6-1.4l1.6,0.2c-0.8-0.7,1.4-0.8-1.9-0.7c-0.1,1.1-0.5,0.6,0.2,1.5
		L389.7,348.2z M569.7,565.6l-3.1-1.3c0.8,1.2-0.5,0.6,1.3,1.5C569.3,566.6,569.5,565.7,569.7,565.6L569.7,565.6z M454.1,296.5
		c2.3,1,1.8,0,2.3-0.5c-0.4-0.2,0.7-0.7-1-0.4C454,295.8,454.4,295.3,454.1,296.5z M553.6,220.9c0-0.1,0.1-0.2,0.1-0.3
		c0-0.1,0-0.2,0-0.3c-0.5-0.9,0.3-0.1-0.7-0.7C552.8,220.1,551.6,220.9,553.6,220.9z M509.4,374.5c0.8-1,1,1.6,0.4-0.6l-0.4-0.7
		C509.4,373.1,507.5,373,509.4,374.5L509.4,374.5z M565.6,570.7c-0.1-0.1-0.3-0.4-0.3-0.3l-1.2-0.7
		C564.4,571,562.9,570.8,565.6,570.7z M310.6,315.1l1.5-1.1C309.2,313.6,311.4,314,310.6,315.1z M297.6,364.5c1.3-0.6,0.5,0,1.2-1.2
		C296.9,363.7,298.5,363.2,297.6,364.5L297.6,364.5z M273.1,250.5l1.4-1.2C272.1,250,274.2,248.9,273.1,250.5L273.1,250.5z"/>
</g>
</svg>
